<svg width="1600" height="1120" viewBox="0 0 1600 1120" fill="none" xmlns="http://www.w3.org/2000/svg">
  <rect width="1600" height="1120" rx="36" fill="#F7FAEE"/>
  <text x="64" y="72" fill="#172033" font-family="Arial, sans-serif" font-size="34" font-weight="800">AI Study Maker Supabase ERD</text>
  <text x="64" y="108" fill="#64748B" font-family="Arial, sans-serif" font-size="18">학습 세션, 문제, 제출, 오답노트, 출처, AI 비용 방어 테이블 구조</text>

  <defs>
    <filter id="shadow" x="-20%" y="-20%" width="140%" height="140%">
      <feDropShadow dx="0" dy="8" stdDeviation="10" flood-color="#172033" flood-opacity="0.10"/>
    </filter>
    <marker id="arrow" markerWidth="12" markerHeight="12" refX="10" refY="6" orient="auto">
      <path d="M2 2 L10 6 L2 10" stroke="#8B6FE6" stroke-width="2" fill="none"/>
    </marker>
  </defs>

  <style>
    .table { filter: url(#shadow); }
    .box { fill: white; stroke: #DDECC4; stroke-width: 2; }
    .head { fill: #C9F57A; }
    .head2 { fill: #DFF3FF; }
    .head3 { fill: #FFF3B8; }
    .title { fill: #172033; font: 800 19px Arial, sans-serif; }
    .field { fill: #334155; font: 600 14px Arial, sans-serif; }
    .meta { fill: #64748B; font: 600 12px Arial, sans-serif; }
    .rel { stroke: #8B6FE6; stroke-width: 3; fill: none; marker-end: url(#arrow); }
    .label { fill: #6C3FF2; font: 800 13px Arial, sans-serif; }
  </style>

  <g class="table" transform="translate(64 160)">
    <rect class="box" width="300" height="210" rx="22"/>
    <path class="head" d="M0 22C0 9.85 9.85 0 22 0H278C290.15 0 300 9.85 300 22V58H0V22Z"/>
    <text class="title" x="22" y="38">study_folders</text>
    <text class="field" x="22" y="86">PK id uuid</text>
    <text class="field" x="22" y="112">anonymous_id text</text>
    <text class="field" x="22" y="138">name text</text>
    <text class="field" x="22" y="164">system_type text</text>
    <text class="meta" x="22" y="190">color, icon, created_at</text>
  </g>

  <g class="table" transform="translate(520 140)">
    <rect class="box" width="330" height="280" rx="22"/>
    <path class="head" d="M0 22C0 9.85 9.85 0 22 0H308C320.15 0 330 9.85 330 22V58H0V22Z"/>
    <text class="title" x="22" y="38">study_sessions</text>
    <text class="field" x="22" y="86">PK id uuid</text>
    <text class="field" x="22" y="112">FK folder_id uuid</text>
    <text class="field" x="22" y="138">anonymous_id text</text>
    <text class="field" x="22" y="164">topic / normalized_topic</text>
    <text class="field" x="22" y="190">current_stage text</text>
    <text class="field" x="22" y="216">unlocked_stage text</text>
    <text class="field" x="22" y="242">content jsonb</text>
    <text class="meta" x="22" y="268">level, question_count, created_at</text>
  </g>

  <g class="table" transform="translate(1050 110)">
    <rect class="box" width="330" height="300" rx="22"/>
    <path class="head2" d="M0 22C0 9.85 9.85 0 22 0H308C320.15 0 330 9.85 330 22V58H0V22Z"/>
    <text class="title" x="22" y="38">questions</text>
    <text class="field" x="22" y="86">PK id uuid</text>
    <text class="field" x="22" y="112">FK session_id uuid</text>
    <text class="field" x="22" y="138">order_no integer</text>
    <text class="field" x="22" y="164">type text</text>
    <text class="field" x="22" y="190">question text</text>
    <text class="field" x="22" y="216">answer / options jsonb</text>
    <text class="field" x="22" y="242">hint text</text>
    <text class="field" x="22" y="268">related_concept text</text>
  </g>

  <g class="table" transform="translate(1050 470)">
    <rect class="box" width="330" height="250" rx="22"/>
    <path class="head2" d="M0 22C0 9.85 9.85 0 22 0H308C320.15 0 330 9.85 330 22V58H0V22Z"/>
    <text class="title" x="22" y="38">submissions</text>
    <text class="field" x="22" y="86">PK id uuid</text>
    <text class="field" x="22" y="112">FK session_id uuid</text>
    <text class="field" x="22" y="138">anonymous_id text</text>
    <text class="field" x="22" y="164">answers jsonb</text>
    <text class="field" x="22" y="190">score integer</text>
    <text class="field" x="22" y="216">feedback / hint_usage jsonb</text>
  </g>

  <g class="table" transform="translate(1050 780)">
    <rect class="box" width="330" height="270" rx="22"/>
    <path class="head3" d="M0 22C0 9.85 9.85 0 22 0H308C320.15 0 330 9.85 330 22V58H0V22Z"/>
    <text class="title" x="22" y="38">wrong_notes</text>
    <text class="field" x="22" y="86">PK id uuid</text>
    <text class="field" x="22" y="112">FK session_id uuid</text>
    <text class="field" x="22" y="138">FK question_id uuid</text>
    <text class="field" x="22" y="164">user_answer text</text>
    <text class="field" x="22" y="190">correct_answer jsonb</text>
    <text class="field" x="22" y="216">mistake_type / status</text>
    <text class="field" x="22" y="242">next_review_at timestamptz</text>
  </g>

  <g class="table" transform="translate(520 500)">
    <rect class="box" width="330" height="250" rx="22"/>
    <path class="head3" d="M0 22C0 9.85 9.85 0 22 0H308C320.15 0 330 9.85 330 22V58H0V22Z"/>
    <text class="title" x="22" y="38">study_sources</text>
    <text class="field" x="22" y="86">PK id uuid</text>
    <text class="field" x="22" y="112">FK session_id uuid</text>
    <text class="field" x="22" y="138">topic text</text>
    <text class="field" x="22" y="164">title / url text</text>
    <text class="field" x="22" y="190">source_type text</text>
    <text class="field" x="22" y="216">reliability text</text>
  </g>

  <g class="table" transform="translate(64 470)">
    <rect class="box" width="300" height="250" rx="22"/>
    <path class="head" d="M0 22C0 9.85 9.85 0 22 0H278C290.15 0 300 9.85 300 22V58H0V22Z"/>
    <text class="title" x="22" y="38">ai_generation_cache</text>
    <text class="field" x="22" y="86">PK id uuid</text>
    <text class="field" x="22" y="112">UK cache_key text</text>
    <text class="field" x="22" y="138">normalized_topic text</text>
    <text class="field" x="22" y="164">stage text</text>
    <text class="field" x="22" y="190">content jsonb</text>
    <text class="field" x="22" y="216">questions jsonb</text>
  </g>

  <g class="table" transform="translate(64 800)">
    <rect class="box" width="300" height="210" rx="22"/>
    <path class="head3" d="M0 22C0 9.85 9.85 0 22 0H278C290.15 0 300 9.85 300 22V58H0V22Z"/>
    <text class="title" x="22" y="38">generation_locks</text>
    <text class="field" x="22" y="86">PK lock_key text</text>
    <text class="field" x="22" y="112">anonymous_id text</text>
    <text class="field" x="22" y="138">normalized_topic text</text>
    <text class="field" x="22" y="164">stage / status text</text>
    <text class="meta" x="22" y="190">session_id, expires_at</text>
  </g>

  <g class="table" transform="translate(520 830)">
    <rect class="box" width="330" height="220" rx="22"/>
    <path class="head2" d="M0 22C0 9.85 9.85 0 22 0H308C320.15 0 330 9.85 330 22V58H0V22Z"/>
    <text class="title" x="22" y="38">ai_usage_events</text>
    <text class="field" x="22" y="86">PK id uuid</text>
    <text class="field" x="22" y="112">anonymous_id text</text>
    <text class="field" x="22" y="138">ip_hash text</text>
    <text class="field" x="22" y="164">action text</text>
    <text class="field" x="22" y="190">metadata jsonb</text>
  </g>

  <path class="rel" d="M364 265 C430 265 450 280 520 280"/>
  <text class="label" x="404" y="246">folder_id</text>
  <path class="rel" d="M850 245 C930 245 950 245 1050 245"/>
  <text class="label" x="912" y="226">session_id</text>
  <path class="rel" d="M850 320 C950 420 950 585 1050 595"/>
  <text class="label" x="918" y="466">session_id</text>
  <path class="rel" d="M850 392 C940 530 948 890 1050 910"/>
  <text class="label" x="914" y="740">session_id</text>
  <path class="rel" d="M1215 410 C1215 540 1215 660 1215 780"/>
  <text class="label" x="1230" y="602">question_id</text>
  <path class="rel" d="M685 420 C685 450 685 470 685 500"/>
  <text class="label" x="700" y="462">session_id</text>
  <path class="rel" d="M364 595 C440 520 445 330 520 310"/>
  <text class="label" x="382" y="516">cache by topic + stage</text>
  <path class="rel" d="M364 905 C430 870 450 375 520 345"/>
  <text class="label" x="378" y="792">prevents duplicate generation</text>
  <path class="rel" d="M520 940 C450 925 435 860 364 860"/>
  <text class="label" x="390" y="954">usage tracking independent</text>
</svg>
